<?xml version="1.0" encoding="utf-8"?>
<!-- Generator: Adobe Illustrator 19.2.1, SVG Export Plug-In . SVG Version: 6.00 Build 0)  -->
<svg version="1.1" id="Capa_1" xmlns="http://www.w3.org/2000/svg" xmlns:xlink="http://www.w3.org/1999/xlink" x="0px" y="0px"
	 viewBox="0 0 31.8 30.5" style="enable-background:new 0 0 31.8 30.5;" xml:space="preserve">
<style type="text/css">
	.st0{fill:#1D1D1B;}
</style>
<title>favicon32px</title>
<path class="st0" d="M30.9,19.9c-4.3,7.4-13.7,5.8-13.7,5.8c2,2.7,6.8,0.9,6.8,0.9C21.5,32.7,12.9,29,12.9,29c1-1,1.4-2.4,1.4-3.7
	c0-1.6-0.9-3.1-2.2-3.8c-1.4-0.8-3.8-1.1-5.3,0l0.3,1c2.2-0.7,4.9-0.3,5.7,1.9c0.8,1.8-0.4,4.7-2.8,5.3l-0.8,0.2
	c-7.4,1.4-9-4.8-9-4.8c-1.4-4.6,1.5-8.1,5.3-9.7c2.8-1.2,5.2-2.4,5.2-2.4c8-3.1,8.8-9.2,8.8-9.2c0.2-1.7,1.6-3.1,3.2-3.3
	c0.8,0,1.7,0.3,2.3,0.8c0.9,0.8,1.6,1.8,2,3c0.4,1.6,0.4,3.3-0.2,4.9c-0.7,2.5-2.3,4.6-4.3,6.1c-1.7,1.2-3.5,2.1-5.5,2.7
	c-0.6,0.2-1.3,0.4-2,0.5c-0.2,0.1-0.5,0.1-0.7,0.1c3.7,1,8.2,0,11-3.6c0.9-1.3,2.3-1.7,3.5-1.6C29.4,13.3,33.6,14.1,30.9,19.9z"/>
</svg>
