<svg width="107" height="101" viewBox="0 0 107 101" fill="none" xmlns="http://www.w3.org/2000/svg">
<path d="M70.0909 89.0604C49.4212 93.3697 36.8001 73.4621 36.8001 73.4621C35.1631 81.5905 46.4018 87.4386 46.4018 87.4386C31.0915 92.9098 23.6408 71.0072 23.6408 71.0072C27.1271 71.1944 30.3535 69.6195 32.7348 67.4748C35.6658 64.8351 36.9245 60.7071 36.0559 57.1641C35.2051 53.2725 31.784 48.3687 27.2872 47.4279L25.9518 49.6288C30.8739 52.5154 34.6082 58.1353 31.9018 63.2345C29.9281 67.6737 22.6304 70.2537 17.5606 66.8347L15.8706 65.6951C1.063 54.4108 9.77316 41.2429 9.77316 41.2429C15.8833 31.082 27.0927 30.6351 36.3106 34.9761C43.1413 38.14 49.3102 40.5691 49.3102 40.5691C68.2246 50.1508 80.7223 41.5567 80.7223 41.5567C84.1673 39.1194 89.0481 39.3816 92.0617 41.9908C93.3852 43.4604 94.3247 45.6087 94.4015 47.5358C94.425 50.509 93.7513 53.4447 92.2149 56.1592C89.9458 59.5337 86.8317 62.3383 82.9081 63.8758C77.1704 66.7144 70.6764 67.2397 64.6197 66.0404C59.609 64.8972 54.9823 63.0754 50.5742 60.3912C49.2152 59.619 47.6907 58.663 46.3494 57.5421C45.8353 57.3397 45.339 56.7886 45.0081 56.4212C49.2978 64.8679 58.5747 71.4847 69.8018 70.6891C73.6722 70.1977 76.7212 72.1096 78.5234 74.479C79.6992 75.4162 85.1826 84.4515 70.0909 89.0604Z" fill="#9E3DE3"/>
</svg>
