<svg width="82" height="81" viewBox="0 0 82 81" fill="none" xmlns="http://www.w3.org/2000/svg">
<path d="M76.8034 65.0758C61.0887 79.1774 40.1805 68.2937 40.1805 68.2937C42.8445 76.1458 55.5003 75.5629 55.5003 75.5629C45.0042 87.9796 27.5668 72.7753 27.5668 72.7753C30.6761 71.1874 32.6761 68.2059 33.6593 65.1556C34.8695 61.4014 33.8862 57.1993 31.3567 54.5708C28.6676 51.6319 23.2473 49.1077 18.8858 50.551L18.8354 53.1249C24.5414 53.151 30.592 56.1374 30.8105 61.9062C31.3316 66.7364 26.3146 72.6307 20.2136 72.2182L18.1799 72.0807C-0.291147 69.753 0.633218 53.992 0.633218 53.992C0.818075 42.1369 10.2889 36.1242 20.4404 35.2522C27.9364 34.5603 34.4912 33.565 34.4912 33.565C55.6599 32.359 62.1558 18.6529 62.1558 18.6529C63.9122 14.8158 68.2652 12.5928 72.1813 13.3371C74.0637 13.9438 75.9545 15.3303 76.9882 16.9586C78.5008 19.5183 79.3916 22.3956 79.4252 25.5146C79.1563 29.5721 77.8706 33.561 75.2487 36.86C71.7107 42.195 66.3577 45.9088 60.5172 47.9114C55.6095 49.4377 50.6934 50.1842 45.5336 50.0751C43.9705 50.0892 42.1722 50.0276 40.4494 49.7313C39.9032 49.8142 39.1973 49.5867 38.7267 49.435C46.6765 54.5877 58.0213 55.6544 67.3325 49.3312C70.4334 46.9636 74.0302 47.0869 76.7781 48.2317C78.2656 48.4521 87.5431 53.5147 76.8034 65.0758Z" fill="#9E3DE3"/>
</svg>
