<svg width="79" height="73" viewBox="0 0 79 73" fill="none" xmlns="http://www.w3.org/2000/svg">
<path d="M2.21719 47.8256C12.8478 66.0684 36.0867 62.124 36.0867 62.124C31.1422 68.7802 19.2756 64.3428 19.2756 64.3428C25.4561 79.3807 46.7173 70.2593 46.7173 70.2593C44.245 67.7941 43.2562 64.3427 43.2562 61.1379C43.2562 57.1936 45.4812 53.4957 48.6951 51.77C52.1562 49.7978 58.0895 49.0583 61.7979 51.77L61.0562 54.2353C55.6173 52.5096 48.9423 53.4957 46.9645 58.9192C44.9867 63.3567 47.9534 70.5059 53.8867 71.985L55.8645 72.478C74.159 75.9294 78.1145 60.6449 78.1145 60.6449C81.5757 49.3048 74.4062 40.6765 65.0117 36.7321C58.0895 33.7738 52.1562 30.8155 52.1562 30.8155C32.3784 23.1733 30.4006 8.13529 30.4006 8.13529C29.9061 3.94438 26.445 0.493048 22.4894 0C20.5117 0 18.2867 0.739572 16.8033 1.97219C14.5783 3.94438 12.8478 6.40962 11.8589 9.36791C10.87 13.3123 10.87 17.5032 12.3533 21.4476C14.0839 27.6107 18.0394 32.7877 22.9839 36.4855C27.1867 39.4438 31.6367 41.6625 36.5811 43.1417C38.0645 43.6347 39.795 44.1278 41.5256 44.3743C42.02 44.6208 42.7617 44.6208 43.2562 44.6208C34.1089 47.0861 22.9839 44.6208 16.0617 35.746C13.8367 32.5412 10.3755 31.5551 7.40887 31.8016C5.92553 31.5551 -4.45782 33.5273 2.21719 47.8256Z" fill="#9E3DE3"/>
</svg>
