<svg width="79" height="73" viewBox="0 0 79 73" fill="none" xmlns="http://www.w3.org/2000/svg">
<path d="M76.7828 47.8256C66.1522 66.0684 42.9133 62.124 42.9133 62.124C47.8578 68.7802 59.7244 64.3428 59.7244 64.3428C53.5439 79.3807 32.2827 70.2593 32.2827 70.2593C34.755 67.7941 35.7438 64.3428 35.7438 61.1379C35.7438 57.1936 33.5188 53.4957 30.3049 51.77C26.8438 49.7978 20.9105 49.0583 17.2021 51.77L17.9438 54.2353C23.3827 52.5096 30.0577 53.4957 32.0355 58.9192C34.0133 63.3567 31.0466 70.5059 25.1133 71.985L23.1355 72.478C4.84101 75.9294 0.885451 60.6449 0.885451 60.6449C-2.57567 49.3048 4.59379 40.6765 13.9883 36.7321C20.9105 33.7738 26.8438 30.8155 26.8438 30.8155C46.6216 23.1733 48.5994 8.13529 48.5994 8.13529C49.0939 3.94438 52.555 0.493048 56.5106 0C58.4883 0 60.7133 0.739572 62.1967 1.97219C64.4217 3.94438 66.1522 6.40962 67.1411 9.36791C68.13 13.3123 68.13 17.5032 66.6467 21.4476C64.9161 27.6107 60.9606 32.7877 56.0161 36.4855C51.8133 39.4438 47.3633 41.6625 42.4189 43.1417C40.9355 43.6347 39.205 44.1278 37.4744 44.3743C36.98 44.6208 36.2383 44.6208 35.7438 44.6208C44.8911 47.0861 56.0161 44.6208 62.9383 35.746C65.1633 32.5412 68.6245 31.5551 71.5911 31.8016C73.0745 31.5551 83.4578 33.5273 76.7828 47.8256Z" fill="#9E3DE3"/>
</svg>
