<?xml version="1.0" encoding="utf-8"?>
<!-- Generator: Adobe Illustrator 19.2.1, SVG Export Plug-In . SVG Version: 6.00 Build 0)  -->
<svg version="1.1" id="Capa_1" xmlns="http://www.w3.org/2000/svg" xmlns:xlink="http://www.w3.org/1999/xlink" x="0px" y="0px"
	 viewBox="0 0 96 95.3" style="enable-background:new 0 0 96 95.3;" xml:space="preserve">
<style type="text/css">
	.st0{fill:#FFFFFF;}
	.st1{fill:#714B99;}
</style>
<g>
	<g>
		<path class="st0" d="M47.7,95.3L47.7,95.3C21.3,95.3,0,74,0,47.7l0,0C0,21.3,21.3,0,47.7,0h0C74,0,95.3,21.3,95.3,47.7l0,0
			C95.3,74,74,95.3,47.7,95.3z"/>
	</g>
	<path class="st1" d="M55.9,49.8h-7.5V74H37.2V49.8h-5.3v-9.5h5.3v-6.1c0-4.4,2.1-11.3,11.3-11.3l8.3,0v9.2h-6c-1,0-2.4,0.5-2.4,2.6
		v5.6h8.5L55.9,49.8z M57.2,50.1"/>
</g>
</svg>
