<?xml version="1.0" encoding="utf-8"?>
<!-- Generator: Adobe Illustrator 19.2.1, SVG Export Plug-In . SVG Version: 6.00 Build 0)  -->
<svg version="1.1" xmlns="http://www.w3.org/2000/svg" xmlns:xlink="http://www.w3.org/1999/xlink" x="0px" y="0px"
	 viewBox="0 0 96 95.3" style="enable-background:new 0 0 96 95.3;" xml:space="preserve">
<style type="text/css">
	.st0{fill:#FFFFFF;}
	.st1{fill:#714B99;}
	.st2{display:none;}
	.st3{display:inline;}
	.st4{fill:#724C99;}
	.st5{display:none;opacity:0.5;fill:url(#SVGID_1_);}
</style>
<g id="FB">
	<g>
		<g>
			<path class="st0" d="M47.7,95.3L47.7,95.3C21.3,95.3,0,74,0,47.7l0,0C0,21.3,21.3,0,47.7,0h0C74,0,95.3,21.3,95.3,47.7l0,0
				C95.3,74,74,95.3,47.7,95.3z"/>
		</g>
		<path class="st1" d="M55.9,49.8h-7.5V74H37.2V49.8h-5.3v-9.5h5.3v-6.1c0-4.4,2.1-11.3,11.3-11.3l8.3,0v9.2h-6
			c-1,0-2.4,0.5-2.4,2.6v5.6h8.5L55.9,49.8z M57.2,50.1"/>
	</g>
</g>
<g id="Twitter" class="st2">
	<g class="st3">
		<g>
			<g>
				<g>
					<g>
						<path class="st0" d="M47.7,95.3L47.7,95.3C21.3,95.3,0,74,0,47.7v0C0,21.3,21.3,0,47.7,0h0C74,0,95.3,21.3,95.3,47.7v0
							C95.3,74,74,95.3,47.7,95.3z"/>
					</g>
				</g>
			</g>
			<g>
				<path class="st4" d="M74.4,34c-1.8,0.8-3.8,1.3-5.8,1.6c2.1-1.3,3.7-3.2,4.4-5.6c-2,1.2-4.1,2-6.4,2.5c-1.8-2-4.5-3.2-7.4-3.2
					c-5.6,0-10.1,4.5-10.1,10.1c0,0.8,0.1,1.6,0.3,2.3c-8.4-0.4-15.8-4.4-20.8-10.6c-0.9,1.5-1.4,3.2-1.4,5.1c0,3.5,1.8,6.6,4.5,8.4
					c-1.7-0.1-3.2-0.5-4.6-1.3c0,0,0,0.1,0,0.1c0,4.9,3.5,9,8.1,9.9c-0.8,0.2-1.7,0.4-2.7,0.4c-0.7,0-1.3-0.1-1.9-0.2
					c1.3,4,5,6.9,9.4,7c-3.5,2.7-7.8,4.3-12.6,4.3c-0.8,0-1.6,0-2.4-0.1c4.5,2.9,9.8,4.5,15.5,4.5c18.6,0,28.8-15.4,28.8-28.8
					c0-0.4,0-0.9,0-1.3C71.3,37.8,73,36.1,74.4,34L74.4,34z M74.4,34"/>
			</g>
		</g>
	</g>
</g>
<g id="Capa_3">
	<g>
		<g>
			<linearGradient id="SVGID_1_" gradientUnits="userSpaceOnUse" x1="47.473" y1="48.1727" x2="87.2669" y2="107.5019">
				<stop  offset="0" style="stop-color:#404040"/>
				<stop  offset="0.212" style="stop-color:#2F2F2F;stop-opacity:0.787"/>
				<stop  offset="0.7205" style="stop-color:#0D0D0D;stop-opacity:0.2763"/>
				<stop  offset="0.9956" style="stop-color:#000000;stop-opacity:0"/>
			</linearGradient>
			<polygon class="st5" points="128.6,84.4 48.7,136.4 5.6,70.4 85.5,18.5 			"/>
			<g>
				<g>
					<g>
						<path class="st0" d="M47.7,95.3L47.7,95.3C21.3,95.3,0,74,0,47.7v0C0,21.3,21.3,0,47.7,0h0C74,0,95.3,21.3,95.3,47.7v0
							C95.3,74,74,95.3,47.7,95.3z"/>
					</g>
				</g>
			</g>
			<path id="XMLID_8_" class="st4" d="M37.2,61.2c0,2.4,0.1,3.9,0.6,5.2c0.5,1.2,1.5,2.7,2.8,3.8c1.3,1.1,2.8,2,4.7,2.6
				c1.8,0.6,3.9,0.9,6.3,0.9c2.1,0,4-0.2,5.8-0.6c1.8-0.4,3.8-1.2,6-2.2v-8.2c-2.6,1.7-5.2,2.6-7.8,2.6c-1.5,0-2.8-0.3-3.9-1
				c-0.9-0.5-1.5-1.2-1.8-2c-0.5-1.7-0.5-7.1-0.5-10.1v-9h12.3v-8.1H49.4V21.7H42c-0.3,2.7-0.7,4.3-1.4,6.1
				c-0.7,1.8-2.2,3.7-3.7,4.9c-1.4,1.2-3.4,2.2-5.4,2.9V43h5.7V61.2z"/>
		</g>
	</g>
</g>
</svg>
