<svg id="Layer_1" data-name="Layer 1" xmlns="http://www.w3.org/2000/svg" viewBox="0 0 909.4 615.21"><defs><style>.cls-1{fill:#9e3de3;}</style></defs><title>iconomensajeria</title><path class="cls-1" d="M3.39,42.34L454.69,267.9,906,42.34a62.9,62.9,0,0,0-15-23.9A62.29,62.29,0,0,0,846.9.06H62.49A62.29,62.29,0,0,0,18.38,18.44a62.94,62.94,0,0,0-15,23.9m906,77.83L454.69,347.42,0,120.17V552.76a62.78,62.78,0,0,0,62.49,62.5H846.9a62.79,62.79,0,0,0,62.5-62.5V120.17Z" transform="translate(0 -0.06)"/></svg>