<?xml version="1.0" encoding="utf-8"?>
<!-- Generator: Adobe Illustrator 19.2.1, SVG Export Plug-In . SVG Version: 6.00 Build 0)  -->
<svg version="1.1" id="Capa_1" xmlns="http://www.w3.org/2000/svg" xmlns:xlink="http://www.w3.org/1999/xlink" x="0px" y="0px"
	 viewBox="0 0 711 750" style="enable-background:new 0 0 711 750;" xml:space="preserve">
<style type="text/css">
	.st0{clip-path:url(#SVGID_2_);}
	.st1{fill:#9E3DE3;}
	.st2{fill:#FFFFFF;}
	.st3{fill:none;stroke:#FFFFFF;stroke-width:4;stroke-miterlimit:10;}
	.st4{fill:none;stroke:#9E3DE3;stroke-width:6;stroke-miterlimit:10;}
</style>
<g>
	<defs>
		<rect id="SVGID_1_" width="711" height="750"/>
	</defs>
	<clipPath id="SVGID_2_">
		<use xlink:href="#SVGID_1_"  style="overflow:visible;"/>
	</clipPath>
	<g class="st0">
		<path class="st1" d="M492.9,388.6c-6.2-16.6-17.8-30.5-33-39.7c2.2-14.8,18.7-144.7-61.3-193.2c-74.5-45.1-41.1,112.6,13.2,178
			c-6.4-0.6-10.5-0.5-10.5-0.5c2.6,1.1,4.9,2.9,6.6,5.2c1.7,2.3,2.7,5,2.9,7.9c1.8,14.8-9.9,21.7-10,21.8
			c2.8-17.8-10.2-18.7-10.2-18.7s8.1,5.7,5.8,17.4c-2.3,11.8-14.9,18.3-15,18.3c7.3-24.8-21.3-27.8-21.3-27.8l0.4-0.5
			c0.1-0.2,0.2-0.4,0.4-0.6c27.8,2.3,24,24.3,23.8,24.3c20.7-18.2,1.3-32.3,1.2-32.5c19.7-3.3,17.5,16.3,17.2,16.3
			c4.3-6,6.7-16.4,2.6-23.2c-0.8-1.3-1.7-2.6-2.7-3.8c-2.2-2.6-5.1-4.6-8.4-5.5c-3.3-0.9-6.8-0.8-10,0.3c-2.4,0.8-4.7,2-6.8,3.4
			c-1,0.6-2,1.3-2.8,2.2c11.5-17.2-5.7-26.5-5.5-26.8c1.5,18.5-10.7,26.5-10.8,26.5c-9,1-17.5,4.8-24.4,10.7l-3.1,2.8
			c-1,0.9-2,1.8-2.9,2.6c-11.6-27.9-59.7-127.7-152.2-129.9C75,221.5,215.1,369.4,301.7,388l-0.1,0.2
			c-36,78.3,16.3,121.7,16.3,121.7c81.8,68.4,158.8-8.5,158.8-8.5C519.7,453.4,492.6,388.4,492.9,388.6z"/>
		<path class="st2" d="M436.7,421.1c0,0,1.1-15.8,18.6-28c0.1,0.1,3.6,4.8,3.6,4.8s-13.9,8.1-16.5,19c0.2-0.1,10,0.8,20.4-7.3
			c-0.1,0,1.5,2.9,1.5,2.9C456,417.8,446.5,420.8,436.7,421.1z"/>
		<path class="st3" d="M417.1,469.2c0,0,3.2,8,12.2,4s5.3-13,5.3-13"/>
		<path class="st2" d="M370.6,437.6c-1.6-11.1-7.7-19.4-13.4-18.5c-5.4,0.8-8.7,9.5-7.7,19.8c-6.6,4.8-14.1-2.6-14.1-2.6
			c5.2,10.1,12.2,12,16.3,12.1c2.7,7,7.1,11.5,11.5,10.9C369,458.4,372.3,448.7,370.6,437.6z"/>
		<path class="st1" d="M372.5,541.6c0,0,42.5,6.6,76.6-15.6c0,0.2,8.3,122.1-40,207.8c0.3,0.3-21.7,31.8-34.2,6
			c-1.1-3,1.1-13,2.1-15.7c2.2-5.8,3.7-12.9,6-18.7c2-5,4-12.9,5.7-18c1.6-4.9,2.2-14.1-1.3-17c-13.2-10.9-19,5.1-19.9,7.1
			c-0.1,0.2-36,66.8-56.5,60.8c0.3,0-16-4-9-32.5C302.1,705.6,370.9,554.1,372.5,541.6z"/>
		<path class="st1" d="M345.2,548.1c0,0-47.8-71-94.5-69.3c0,0.2-27.3,6.7-1.8,35.3C274.4,542.7,345.2,548.1,345.2,548.1z"/>
		<path class="st1" d="M555.8,579.7c7.3-12.7,1.9-29.5-12.1-37.6c-14-8.1-31.3-4.4-38.6,8.3c-7.3,12.7-1.9,29.5,12.1,37.6
			C531.2,596.1,548.5,592.4,555.8,579.7z"/>
		<path class="st1" d="M562.7,511.6l-36.9-22.9c-0.5-0.3-1.1-0.4-1.7-0.4c-0.6,0.1-1.1,0.3-1.5,0.8c-8.3,8.6-49,55-44.6,138.6
			c0,0.5,0.2,1,0.5,1.4c0.3,0.4,0.7,0.7,1.1,0.9c0.5,0.2,1,0.2,1.4,0.1c0.5-0.1,0.9-0.3,1.3-0.7c8.3-7.8,26.9-26.2,31.1-37.2
			c0.2-0.5,0.2-1.1,0.1-1.7c-0.2-0.5-0.5-1-1-1.3c-4.3-3.1-15.9-12.7-14.7-28.9c1.5-19.8,18.5-24.5,18.5-24.5
			c4.7-1.6,9.7-2.1,14.6-1.7c4.9,0.5,9.7,1.9,14,4.3c0.5,0.3,1.1,0.4,1.7,0.3c0.6-0.1,1.1-0.4,1.5-0.8c6-7.1,11.2-14.8,15.5-23.1
			c0.3-0.6,0.4-1.3,0.2-1.9C563.7,512.5,563.3,512,562.7,511.6z"/>
		<path class="st1" d="M528.7,486l35.6,20.5c0.3,0.2,0.6,0.3,1,0.3c0.3,0,0.7,0,1-0.1c0.3-0.1,0.6-0.3,0.8-0.5
			c0.2-0.2,0.4-0.5,0.5-0.9c1.9-5.3,5.9-17.3,5.3-20.4c-0.7-3.5-21.9-13.4-26.8-15.6c-0.3-0.2-0.7-0.2-1-0.2s-0.7,0.1-1,0.2
			c-2.9,1.5-11.6,6.4-16.2,13.4c-0.2,0.3-0.3,0.6-0.4,0.9c-0.1,0.3-0.1,0.6,0,1c0.1,0.3,0.2,0.6,0.4,0.9
			C528.1,485.7,528.4,485.9,528.7,486z"/>
		<path class="st1" d="M549.8,460.2l27.6,16.2c0,0,30.8,5,48.3-18.8c0.3,0,4.8-10-4.8-5.5c-4.5,2.1-9.5,5-14.5,5.3
			c-1.1,0.1-2.2-0.1-3.2-0.5c-1-0.4-1.9-1-2.7-1.7c-0.8-0.8-1.4-1.7-1.7-2.7c-0.4-1-0.6-2.1-0.5-3.2c0.2-3.2,3.1-8.6-1.6-10.2
			c-3.3-1-6.9-1-10.3,0c0,0-10.3,2.2-6.3-12c3-10.6-6.3-5.6-11.9-3.9c-2.4,0.7-5.5,1.2-7.3-1.1c-2.3-3.1,2.6-11.5,1.9-12.3
			C562.6,409.6,535.2,426.6,549.8,460.2z"/>
		<path class="st1" d="M568.6,405.1c0,0-8.3,14.3,0,11.3s17.9-2,17.6,7.2c-0.3,9.2-1.5,11.5,12.7,9.8c4.2-0.5,4.8,14.9,4.8,14.9
			s1.3,9.8,9.6,2.4c4.3-3.8,9.7-6.6,13.6-2.8c2.5,2.4,5.7-4.5,7.7-8.7c23.4-48.1-23.8-84.2-23.8-84.2S612.4,377.9,568.6,405.1z"/>
		<path class="st1" d="M268.9,579.2c1.5-1,3.2-1.6,4.9-1.8c1.8-0.1,3.6,0.2,5.2,1c5,2.1,10.5,2.6,15.8,1.5
			c5.3-1.1,10.2-3.7,14.1-7.5c-0.5,0.3-1.1,0.6-1.7,0.7c-1.7,0.6-3.5,1.1-5.2,1.4c-5.3,1.2-10.7,1.5-16.1,0.9
			c-6.7-0.8-12.9-3.8-17.8-8.5c-3.3-2.9-5.7-6.7-6.8-11c-0.6-3.2-0.4-6.4,0.7-9.5c0.8-2,2.3-3.7,4.3-4.8c2-0.8,4.3-0.8,6.4-0.2
			c2.1,0.6,3.9,1.9,5.2,3.7c0,0,9.7,13,32.1,9.8c0,0,7.1-0.3,15-1.2c10.8-1.2,22,3.1,24.7,15.4c0,0,4.3,16.3-14.5,22.6l-2.1,0.6
			c-6.3,1.7-12.8-3.4-13.3-8.6c-1-6.1,4.7-10.5,10.6-11.7l-0.6-2.7c-4.9-0.6-10,3.2-12.2,6.8c-1,1.7-1.6,3.7-1.6,5.8
			c0,2,0.5,4,1.5,5.8c1.7,3.2,4.6,5.6,8,6.7c0,0-15,19.6-28.6,8.8c0,0,13.4-2.1,14.5-10.8c0,0-19.5,15.8-38.9,4.4
			C258.7,587,267.3,579.8,268.9,579.2z"/>
		<path class="st4" d="M0,3h277.5L327,181.5L353.2,3H711"/>
	</g>
</g>
</svg>
