<svg width="838" height="686" viewBox="0 0 838 686" fill="none" xmlns="http://www.w3.org/2000/svg">
<path d="M384.102 270.824C377.904 254.255 366.271 240.277 351.102 231.174C353.272 216.364 369.792 86.4335 289.802 37.9935C215.262 -7.13647 248.672 150.644 303.012 215.994C296.572 215.394 292.512 215.514 292.472 215.474C295.094 216.586 297.362 218.395 299.029 220.704C300.697 223.013 301.701 225.735 301.932 228.574C303.762 243.404 292.012 250.244 291.932 250.404C294.682 232.574 281.762 231.734 281.762 231.734C281.762 231.734 289.842 237.404 287.512 249.154C285.182 260.904 272.592 267.404 272.512 267.404C279.762 242.574 251.262 239.654 251.262 239.654L251.682 239.154C251.764 238.924 251.91 238.723 252.102 238.574C279.932 240.904 276.102 262.904 275.932 262.904C296.602 244.734 277.262 230.574 277.102 230.404C296.772 227.074 294.602 246.734 294.272 246.734C298.582 240.734 301.002 230.294 296.862 223.574C296.056 222.248 295.143 220.991 294.132 219.814C291.956 217.164 289.017 215.248 285.715 214.327C282.412 213.406 278.906 213.523 275.672 214.664C273.26 215.475 270.972 216.616 268.872 218.054C267.831 218.617 266.894 219.354 266.102 220.234C277.602 203.064 260.432 193.734 260.602 193.404C262.102 211.904 249.932 219.904 249.772 219.904C240.752 220.942 232.25 224.658 225.362 230.574L222.232 233.344C221.232 234.244 220.232 235.114 219.302 235.964C207.682 208.114 159.602 108.224 67.1024 106.074C-33.8076 103.724 106.282 251.574 192.902 270.164L192.772 270.404C156.772 348.744 209.102 392.074 209.102 392.074C292.102 457.074 367.852 383.574 367.852 383.574C410.932 335.574 383.852 270.574 384.102 270.824Z" fill="#9E3DE3"/>
<path d="M327.932 303.324C327.932 303.324 329.012 287.574 346.512 275.324C346.592 275.404 350.092 280.074 350.092 280.074C350.092 280.074 336.172 288.154 333.592 299.074C333.762 298.994 343.592 299.904 354.012 291.744C353.932 291.744 355.512 294.664 355.512 294.664C347.256 299.958 337.733 302.948 327.932 303.324Z" fill="white"/>
<path d="M308.272 351.404C308.272 351.404 311.442 359.404 320.442 355.404C329.442 351.404 325.772 342.404 325.772 342.404" stroke="white" stroke-width="4" stroke-miterlimit="10"/>
<path d="M261.843 319.774C260.193 308.684 254.173 300.394 248.403 301.254C242.963 302.064 239.683 310.724 240.713 321.014C234.133 325.804 226.603 318.414 226.603 318.414C231.823 328.534 238.823 330.414 242.913 330.544C245.573 337.544 250.043 342.064 254.383 341.414C260.163 340.574 263.503 330.864 261.843 319.774Z" fill="white"/>
<path d="M263.712 423.824C263.712 423.824 306.172 430.404 340.342 408.244C340.342 408.414 348.592 530.324 300.342 616.074C300.592 616.324 278.612 647.824 266.112 622.074C265.032 619.074 267.162 609.074 268.182 606.404C270.362 600.564 271.902 593.534 274.182 587.734C276.182 582.734 278.182 574.864 279.852 569.734C281.412 564.834 282.082 555.674 278.522 552.734C265.332 541.864 259.522 557.814 258.602 559.814C258.492 560.044 222.602 626.564 202.102 620.564C202.352 620.564 186.102 616.564 193.102 588.064C193.332 587.824 262.102 436.324 263.712 423.824Z" fill="#9E3DE3"/>
<path d="M236.432 430.244C236.432 430.244 188.602 359.244 141.932 360.914C141.932 361.084 114.602 367.584 140.102 396.244C165.602 424.904 236.432 430.244 236.432 430.244Z" fill="#9E3DE3"/>
<path d="M447.017 461.867C454.335 449.192 448.926 432.37 434.936 424.292C420.946 416.215 403.672 419.942 396.354 432.617C389.037 445.292 394.446 462.115 408.436 470.192C422.426 478.269 439.699 474.542 447.017 461.867Z" fill="#9E3DE3"/>
<path d="M453.913 393.824L416.993 370.974C416.496 370.665 415.909 370.535 415.329 370.606C414.748 370.677 414.21 370.944 413.803 371.364C405.493 379.944 364.803 426.364 369.253 509.964C369.28 510.454 369.446 510.926 369.732 511.325C370.019 511.724 370.413 512.033 370.868 512.216C371.324 512.398 371.823 512.447 372.305 512.356C372.788 512.266 373.234 512.039 373.593 511.704C381.863 503.874 400.453 485.474 404.723 474.534C404.928 474.005 404.95 473.423 404.787 472.879C404.624 472.336 404.285 471.862 403.822 471.534C399.552 468.474 387.883 458.794 389.103 442.674C390.603 422.844 407.603 418.214 407.603 418.214C412.293 416.662 417.253 416.098 422.172 416.558C427.091 417.017 431.861 418.49 436.183 420.884C436.691 421.159 437.277 421.253 437.846 421.151C438.414 421.049 438.931 420.758 439.313 420.324C445.327 413.231 450.532 405.489 454.833 397.244C455.145 396.664 455.223 395.987 455.052 395.351C454.881 394.715 454.473 394.169 453.913 393.824Z" fill="#9E3DE3"/>
<path d="M419.862 368.234L455.472 388.714C455.764 388.883 456.09 388.985 456.426 389.013C456.762 389.042 457.101 388.996 457.417 388.878C457.733 388.761 458.02 388.575 458.256 388.334C458.492 388.093 458.671 387.802 458.782 387.484C460.662 382.144 464.682 370.164 464.102 367.084C463.442 363.544 442.212 353.734 437.342 351.524C437.031 351.371 436.689 351.292 436.342 351.292C435.996 351.292 435.654 351.371 435.342 351.524C432.422 353.024 423.782 357.884 419.102 364.884C418.915 365.148 418.786 365.449 418.723 365.767C418.66 366.085 418.664 366.412 418.736 366.728C418.808 367.044 418.945 367.341 419.139 367.601C419.333 367.86 419.579 368.076 419.862 368.234Z" fill="#9E3DE3"/>
<path d="M441.002 342.404L468.602 358.574C468.602 358.574 499.352 363.574 516.852 339.824C517.102 339.824 521.602 329.824 512.102 334.324C507.612 336.444 502.632 339.324 497.562 339.574C496.486 339.636 495.409 339.47 494.402 339.087C493.394 338.705 492.478 338.114 491.715 337.353C490.951 336.592 490.357 335.679 489.97 334.673C489.584 333.666 489.414 332.59 489.472 331.514C489.692 328.274 492.572 322.914 487.862 321.334C484.523 320.306 480.952 320.306 477.612 321.334C477.612 321.334 467.362 323.574 471.362 309.334C474.362 298.714 465.102 303.734 459.442 305.464C457.042 306.204 453.922 306.624 452.172 304.334C449.832 301.264 454.822 292.784 454.102 292.084C453.852 291.824 426.412 308.744 441.002 342.404Z" fill="#9E3DE3"/>
<path d="M459.852 287.324C459.852 287.324 451.602 301.574 459.852 298.574C468.102 295.574 477.762 296.574 477.432 305.804C477.102 315.034 475.902 317.274 490.102 315.574C494.272 315.074 494.902 330.454 494.902 330.454C494.902 330.454 496.162 340.204 504.512 332.824C508.812 329.024 514.202 326.274 518.132 330.054C520.622 332.454 523.812 325.514 525.852 321.324C549.242 273.274 502.102 237.104 502.102 237.104C502.102 237.104 503.602 260.074 459.852 287.324Z" fill="#9E3DE3"/>
<path d="M160.103 461.424C161.559 460.396 163.263 459.777 165.038 459.629C166.814 459.482 168.597 459.811 170.203 460.584C175.217 462.646 180.728 463.183 186.047 462.129C191.365 461.074 196.255 458.474 200.103 454.654C199.576 454.997 198.983 455.225 198.363 455.324C196.661 455.954 194.908 456.432 193.123 456.754C187.835 457.934 182.389 458.238 177.003 457.654C170.318 456.859 164.08 453.886 159.253 449.194C155.924 446.303 153.559 442.465 152.473 438.194C151.871 435.029 152.119 431.761 153.193 428.724C154.038 426.694 155.533 425.003 157.443 423.914C159.49 423.15 161.73 423.073 163.825 423.696C165.92 424.318 167.755 425.606 169.053 427.364C169.053 427.364 178.763 440.364 201.133 437.134C201.133 437.134 208.193 436.794 216.133 435.934C226.923 434.704 238.133 439.004 240.823 451.374C240.823 451.374 245.153 467.674 226.353 474.014L224.253 474.584C217.963 476.304 211.473 471.194 210.983 466.024C209.983 459.944 215.663 455.534 221.623 454.304L221.023 451.624C216.163 451.034 211.023 454.824 208.853 458.464C207.809 460.208 207.246 462.196 207.219 464.228C207.193 466.26 207.705 468.263 208.703 470.034C210.384 473.23 213.259 475.634 216.703 476.724C216.703 476.724 201.703 496.324 188.113 485.534C188.113 485.534 201.463 483.474 202.573 474.694C202.573 474.694 183.053 490.504 163.623 479.054C149.933 469.224 158.543 461.974 160.103 461.424Z" fill="#9E3DE3"/>
<path d="M756 30L756 264.963L578 306.868L756 329.086L756 632" stroke="#9E3DE3" stroke-width="6" stroke-miterlimit="10"/>
</svg>
